<mxfile host="app.diagrams.net" agent="Mozilla/5.0 (Windows NT 10.0; Win64; x64) AppleWebKit/537.36 (KHTML, like Gecko) Chrome/137.0.0.0 Safari/537.36" version="27.1.6">
  <diagram id="C5RBs43oDa-KdzZeNtuy" name="Page-1">
    <mxGraphModel dx="1281" dy="534" grid="1" gridSize="10" guides="1" tooltips="1" connect="1" arrows="1" fold="1" page="1" pageScale="1" pageWidth="827" pageHeight="1169" math="0" shadow="0">
      <root>
        <mxCell id="WIyWlLk6GJQsqaUBKTNV-0" />
        <mxCell id="WIyWlLk6GJQsqaUBKTNV-1" parent="WIyWlLk6GJQsqaUBKTNV-0" />
        <mxCell id="vEUu0K7toQBcVFS3bRUc-2" value="" style="rounded=0;html=1;jettySize=auto;orthogonalLoop=1;fontSize=11;endArrow=block;endFill=0;endSize=8;strokeWidth=1;shadow=0;labelBackgroundColor=none;edgeStyle=orthogonalEdgeStyle;entryX=0.5;entryY=0;entryDx=0;entryDy=0;" edge="1" parent="WIyWlLk6GJQsqaUBKTNV-1" source="vEUu0K7toQBcVFS3bRUc-3" target="vEUu0K7toQBcVFS3bRUc-21">
          <mxGeometry relative="1" as="geometry">
            <mxPoint x="200" y="130" as="targetPoint" />
          </mxGeometry>
        </mxCell>
        <mxCell id="vEUu0K7toQBcVFS3bRUc-3" value="Listar todas las URLs a scrapear profundizando hasta el nivel marcado" style="rounded=1;whiteSpace=wrap;html=1;fontSize=12;glass=0;strokeWidth=1;shadow=0;direction=east;" vertex="1" parent="WIyWlLk6GJQsqaUBKTNV-1">
          <mxGeometry x="130" y="60" width="140" height="50" as="geometry" />
        </mxCell>
        <mxCell id="vEUu0K7toQBcVFS3bRUc-4" value="Limipeza del HTML" style="rounded=1;whiteSpace=wrap;html=1;fontSize=12;glass=0;strokeWidth=1;shadow=0;" vertex="1" parent="WIyWlLk6GJQsqaUBKTNV-1">
          <mxGeometry x="140" y="641" width="120" height="40" as="geometry" />
        </mxCell>
        <mxCell id="vEUu0K7toQBcVFS3bRUc-5" value="Scrapear el código HTML" style="rounded=1;whiteSpace=wrap;html=1;fontSize=12;glass=0;strokeWidth=1;shadow=0;" vertex="1" parent="WIyWlLk6GJQsqaUBKTNV-1">
          <mxGeometry x="140" y="556" width="120" height="40" as="geometry" />
        </mxCell>
        <mxCell id="vEUu0K7toQBcVFS3bRUc-6" value="¿El robots.txt permite acceso?" style="rhombus;whiteSpace=wrap;html=1;shadow=0;fontFamily=Helvetica;fontSize=12;align=center;strokeWidth=1;spacing=6;spacingTop=-4;" vertex="1" parent="WIyWlLk6GJQsqaUBKTNV-1">
          <mxGeometry x="135" y="370" width="130" height="110" as="geometry" />
        </mxCell>
        <mxCell id="vEUu0K7toQBcVFS3bRUc-7" value="" style="rounded=0;html=1;jettySize=auto;orthogonalLoop=1;fontSize=11;endArrow=block;endFill=0;endSize=8;strokeWidth=1;shadow=0;labelBackgroundColor=none;edgeStyle=orthogonalEdgeStyle;exitX=0.5;exitY=1;exitDx=0;exitDy=0;entryX=0.5;entryY=0;entryDx=0;entryDy=0;" edge="1" parent="WIyWlLk6GJQsqaUBKTNV-1" source="vEUu0K7toQBcVFS3bRUc-6" target="vEUu0K7toQBcVFS3bRUc-5">
          <mxGeometry relative="1" as="geometry">
            <mxPoint x="625" y="460" as="sourcePoint" />
            <mxPoint x="190" y="530" as="targetPoint" />
            <Array as="points" />
          </mxGeometry>
        </mxCell>
        <mxCell id="vEUu0K7toQBcVFS3bRUc-8" value="Sí" style="edgeLabel;html=1;align=center;verticalAlign=middle;resizable=0;points=[];" vertex="1" connectable="0" parent="vEUu0K7toQBcVFS3bRUc-7">
          <mxGeometry x="-0.33" y="-1" relative="1" as="geometry">
            <mxPoint as="offset" />
          </mxGeometry>
        </mxCell>
        <mxCell id="vEUu0K7toQBcVFS3bRUc-9" value="" style="rounded=0;html=1;jettySize=auto;orthogonalLoop=1;fontSize=11;endArrow=block;endFill=0;endSize=8;strokeWidth=1;shadow=0;labelBackgroundColor=none;edgeStyle=orthogonalEdgeStyle;exitX=1;exitY=0.5;exitDx=0;exitDy=0;entryX=0;entryY=0.5;entryDx=0;entryDy=0;" edge="1" parent="WIyWlLk6GJQsqaUBKTNV-1" source="vEUu0K7toQBcVFS3bRUc-6" target="vEUu0K7toQBcVFS3bRUc-11">
          <mxGeometry relative="1" as="geometry">
            <mxPoint x="335" y="300" as="sourcePoint" />
            <mxPoint x="335" y="280" as="targetPoint" />
            <Array as="points" />
          </mxGeometry>
        </mxCell>
        <mxCell id="vEUu0K7toQBcVFS3bRUc-10" value="No" style="edgeLabel;html=1;align=center;verticalAlign=middle;resizable=0;points=[];" vertex="1" connectable="0" parent="vEUu0K7toQBcVFS3bRUc-9">
          <mxGeometry x="0.0733" relative="1" as="geometry">
            <mxPoint as="offset" />
          </mxGeometry>
        </mxCell>
        <mxCell id="vEUu0K7toQBcVFS3bRUc-11" value="Pasar siguiente URL" style="rounded=1;whiteSpace=wrap;html=1;fontSize=12;glass=0;strokeWidth=1;shadow=0;" vertex="1" parent="WIyWlLk6GJQsqaUBKTNV-1">
          <mxGeometry x="435" y="405" width="120" height="40" as="geometry" />
        </mxCell>
        <mxCell id="vEUu0K7toQBcVFS3bRUc-12" value="¿Hay más &lt;br&gt;URLs?" style="rhombus;whiteSpace=wrap;html=1;shadow=0;fontFamily=Helvetica;fontSize=12;align=center;strokeWidth=1;spacing=6;spacingTop=-4;" vertex="1" parent="WIyWlLk6GJQsqaUBKTNV-1">
          <mxGeometry x="445" y="480" width="100" height="90" as="geometry" />
        </mxCell>
        <mxCell id="vEUu0K7toQBcVFS3bRUc-13" value="" style="rounded=0;html=1;jettySize=auto;orthogonalLoop=1;fontSize=11;endArrow=block;endFill=0;endSize=8;strokeWidth=1;shadow=0;labelBackgroundColor=none;edgeStyle=orthogonalEdgeStyle;exitX=0.5;exitY=1;exitDx=0;exitDy=0;entryX=0.5;entryY=0;entryDx=0;entryDy=0;" edge="1" parent="WIyWlLk6GJQsqaUBKTNV-1" source="vEUu0K7toQBcVFS3bRUc-11" target="vEUu0K7toQBcVFS3bRUc-12">
          <mxGeometry relative="1" as="geometry">
            <mxPoint x="325" y="230" as="sourcePoint" />
            <mxPoint x="325" y="270" as="targetPoint" />
          </mxGeometry>
        </mxCell>
        <mxCell id="vEUu0K7toQBcVFS3bRUc-14" value="" style="rounded=0;html=1;jettySize=auto;orthogonalLoop=1;fontSize=11;endArrow=block;endFill=0;endSize=8;strokeWidth=1;shadow=0;labelBackgroundColor=none;edgeStyle=orthogonalEdgeStyle;exitX=0.5;exitY=1;exitDx=0;exitDy=0;entryX=0.5;entryY=0;entryDx=0;entryDy=0;" edge="1" parent="WIyWlLk6GJQsqaUBKTNV-1" source="vEUu0K7toQBcVFS3bRUc-5" target="vEUu0K7toQBcVFS3bRUc-4">
          <mxGeometry relative="1" as="geometry">
            <mxPoint x="650" y="611" as="sourcePoint" />
            <mxPoint x="650" y="651" as="targetPoint" />
          </mxGeometry>
        </mxCell>
        <mxCell id="vEUu0K7toQBcVFS3bRUc-15" value="" style="rounded=0;html=1;jettySize=auto;orthogonalLoop=1;fontSize=11;endArrow=block;endFill=0;endSize=8;strokeWidth=1;shadow=0;labelBackgroundColor=none;edgeStyle=orthogonalEdgeStyle;exitX=1;exitY=0.5;exitDx=0;exitDy=0;entryX=0.5;entryY=1;entryDx=0;entryDy=0;" edge="1" parent="WIyWlLk6GJQsqaUBKTNV-1" source="vEUu0K7toQBcVFS3bRUc-24" target="vEUu0K7toQBcVFS3bRUc-12">
          <mxGeometry relative="1" as="geometry">
            <mxPoint x="725" y="550" as="sourcePoint" />
            <mxPoint x="725" y="620" as="targetPoint" />
          </mxGeometry>
        </mxCell>
        <mxCell id="vEUu0K7toQBcVFS3bRUc-16" value="" style="rounded=0;html=1;jettySize=auto;orthogonalLoop=1;fontSize=11;endArrow=block;endFill=0;endSize=8;strokeWidth=1;shadow=0;labelBackgroundColor=none;edgeStyle=orthogonalEdgeStyle;exitX=1;exitY=0.5;exitDx=0;exitDy=0;entryX=0;entryY=0.5;entryDx=0;entryDy=0;" edge="1" parent="WIyWlLk6GJQsqaUBKTNV-1" source="vEUu0K7toQBcVFS3bRUc-12" target="vEUu0K7toQBcVFS3bRUc-18">
          <mxGeometry relative="1" as="geometry">
            <mxPoint x="785" y="515" as="sourcePoint" />
            <mxPoint x="925" y="510" as="targetPoint" />
            <Array as="points" />
          </mxGeometry>
        </mxCell>
        <mxCell id="vEUu0K7toQBcVFS3bRUc-17" value="No" style="edgeLabel;html=1;align=center;verticalAlign=middle;resizable=0;points=[];" vertex="1" connectable="0" parent="vEUu0K7toQBcVFS3bRUc-16">
          <mxGeometry x="0.0733" relative="1" as="geometry">
            <mxPoint as="offset" />
          </mxGeometry>
        </mxCell>
        <mxCell id="vEUu0K7toQBcVFS3bRUc-18" value="Exportar KML" style="rounded=1;whiteSpace=wrap;html=1;fontSize=12;glass=0;strokeWidth=1;shadow=0;" vertex="1" parent="WIyWlLk6GJQsqaUBKTNV-1">
          <mxGeometry x="720" y="505" width="120" height="40" as="geometry" />
        </mxCell>
        <mxCell id="vEUu0K7toQBcVFS3bRUc-21" value="Seleccionar URL de la lista" style="rounded=1;whiteSpace=wrap;html=1;fontSize=12;glass=0;strokeWidth=1;shadow=0;" vertex="1" parent="WIyWlLk6GJQsqaUBKTNV-1">
          <mxGeometry x="140" y="140" width="120" height="40" as="geometry" />
        </mxCell>
        <mxCell id="vEUu0K7toQBcVFS3bRUc-22" value="" style="rounded=0;html=1;jettySize=auto;orthogonalLoop=1;fontSize=11;endArrow=block;endFill=0;endSize=8;strokeWidth=1;shadow=0;labelBackgroundColor=none;edgeStyle=orthogonalEdgeStyle;exitX=0.5;exitY=1;exitDx=0;exitDy=0;entryX=0.5;entryY=0;entryDx=0;entryDy=0;" edge="1" parent="WIyWlLk6GJQsqaUBKTNV-1" source="vEUu0K7toQBcVFS3bRUc-21" target="vEUu0K7toQBcVFS3bRUc-26">
          <mxGeometry relative="1" as="geometry">
            <mxPoint x="200" y="220" as="targetPoint" />
            <mxPoint x="199.5" y="190" as="sourcePoint" />
          </mxGeometry>
        </mxCell>
        <mxCell id="vEUu0K7toQBcVFS3bRUc-24" value="Almacenar en Base de Datos" style="rounded=1;whiteSpace=wrap;html=1;fontSize=12;glass=0;strokeWidth=1;shadow=0;" vertex="1" parent="WIyWlLk6GJQsqaUBKTNV-1">
          <mxGeometry x="140" y="738" width="120" height="40" as="geometry" />
        </mxCell>
        <mxCell id="vEUu0K7toQBcVFS3bRUc-25" value="" style="rounded=0;html=1;jettySize=auto;orthogonalLoop=1;fontSize=11;endArrow=block;endFill=0;endSize=8;strokeWidth=1;shadow=0;labelBackgroundColor=none;edgeStyle=orthogonalEdgeStyle;entryX=0.5;entryY=0;entryDx=0;entryDy=0;exitX=0.5;exitY=1;exitDx=0;exitDy=0;" edge="1" parent="WIyWlLk6GJQsqaUBKTNV-1" target="vEUu0K7toQBcVFS3bRUc-24" source="vEUu0K7toQBcVFS3bRUc-4">
          <mxGeometry relative="1" as="geometry">
            <mxPoint x="200" y="693" as="sourcePoint" />
            <mxPoint x="650" y="748" as="targetPoint" />
          </mxGeometry>
        </mxCell>
        <mxCell id="vEUu0K7toQBcVFS3bRUc-26" value="¿Está el HTML en base de datos?" style="rhombus;whiteSpace=wrap;html=1;shadow=0;fontFamily=Helvetica;fontSize=12;align=center;strokeWidth=1;spacing=6;spacingTop=-4;" vertex="1" parent="WIyWlLk6GJQsqaUBKTNV-1">
          <mxGeometry x="135" y="220" width="130" height="110" as="geometry" />
        </mxCell>
        <mxCell id="vEUu0K7toQBcVFS3bRUc-27" value="" style="rounded=0;html=1;jettySize=auto;orthogonalLoop=1;fontSize=11;endArrow=block;endFill=0;endSize=8;strokeWidth=1;shadow=0;labelBackgroundColor=none;edgeStyle=orthogonalEdgeStyle;exitX=0.5;exitY=1;exitDx=0;exitDy=0;entryX=0.5;entryY=0;entryDx=0;entryDy=0;" edge="1" parent="WIyWlLk6GJQsqaUBKTNV-1" source="vEUu0K7toQBcVFS3bRUc-26" target="vEUu0K7toQBcVFS3bRUc-6">
          <mxGeometry relative="1" as="geometry">
            <mxPoint x="270" y="330" as="sourcePoint" />
            <mxPoint x="270" y="406" as="targetPoint" />
            <Array as="points" />
          </mxGeometry>
        </mxCell>
        <mxCell id="vEUu0K7toQBcVFS3bRUc-28" value="No" style="edgeLabel;html=1;align=center;verticalAlign=middle;resizable=0;points=[];" vertex="1" connectable="0" parent="vEUu0K7toQBcVFS3bRUc-27">
          <mxGeometry x="-0.33" y="-1" relative="1" as="geometry">
            <mxPoint as="offset" />
          </mxGeometry>
        </mxCell>
        <mxCell id="vEUu0K7toQBcVFS3bRUc-29" value="" style="rounded=0;html=1;jettySize=auto;orthogonalLoop=1;fontSize=11;endArrow=block;endFill=0;endSize=8;strokeWidth=1;shadow=0;labelBackgroundColor=none;edgeStyle=orthogonalEdgeStyle;exitX=1;exitY=0.5;exitDx=0;exitDy=0;entryX=0.5;entryY=0;entryDx=0;entryDy=0;" edge="1" parent="WIyWlLk6GJQsqaUBKTNV-1" source="vEUu0K7toQBcVFS3bRUc-26" target="vEUu0K7toQBcVFS3bRUc-11">
          <mxGeometry relative="1" as="geometry">
            <mxPoint x="330" y="310" as="sourcePoint" />
            <mxPoint x="500" y="310" as="targetPoint" />
            <Array as="points" />
          </mxGeometry>
        </mxCell>
        <mxCell id="vEUu0K7toQBcVFS3bRUc-30" value="No" style="edgeLabel;html=1;align=center;verticalAlign=middle;resizable=0;points=[];" vertex="1" connectable="0" parent="vEUu0K7toQBcVFS3bRUc-29">
          <mxGeometry x="0.0733" relative="1" as="geometry">
            <mxPoint as="offset" />
          </mxGeometry>
        </mxCell>
        <mxCell id="vEUu0K7toQBcVFS3bRUc-31" value="" style="rounded=0;html=1;jettySize=auto;orthogonalLoop=1;fontSize=11;endArrow=block;endFill=0;endSize=8;strokeWidth=1;shadow=0;labelBackgroundColor=none;edgeStyle=orthogonalEdgeStyle;exitX=1;exitY=0;exitDx=0;exitDy=0;entryX=1;entryY=0.5;entryDx=0;entryDy=0;" edge="1" parent="WIyWlLk6GJQsqaUBKTNV-1" source="vEUu0K7toQBcVFS3bRUc-12" target="vEUu0K7toQBcVFS3bRUc-21">
          <mxGeometry relative="1" as="geometry">
            <mxPoint x="570" y="480" as="sourcePoint" />
            <mxPoint x="800" y="610" as="targetPoint" />
            <Array as="points">
              <mxPoint x="600" y="503" />
              <mxPoint x="600" y="160" />
            </Array>
          </mxGeometry>
        </mxCell>
        <mxCell id="vEUu0K7toQBcVFS3bRUc-32" value="Sí" style="edgeLabel;html=1;align=center;verticalAlign=middle;resizable=0;points=[];" vertex="1" connectable="0" parent="vEUu0K7toQBcVFS3bRUc-31">
          <mxGeometry x="0.0733" relative="1" as="geometry">
            <mxPoint as="offset" />
          </mxGeometry>
        </mxCell>
      </root>
    </mxGraphModel>
  </diagram>
</mxfile>
